<?xml version="1.0" standalone="no"?>
<!DOCTYPE svg PUBLIC "-//W3C//DTD SVG 20010904//EN"
 "http://www.w3.org/TR/2001/REC-SVG-20010904/DTD/svg10.dtd">
<svg version="1.0" xmlns="http://www.w3.org/2000/svg"
 width="400.000000pt" height="400.000000pt" viewBox="0 0 400.000000 400.000000"
 preserveAspectRatio="xMidYMid meet">
<metadata>
Created by potrace 1.11, written by Peter Selinger 2001-2013
</metadata>
<g transform="translate(0.000000,400.000000) scale(0.100000,-0.100000)"
fill="#000000" stroke="none">
<path d="M2575 3984 c-27 -8 -57 -16 -65 -18 -27 -7 -522 -174 -665 -224 -296
-105 -452 -160 -490 -175 -22 -9 -87 -32 -145 -52 -227 -80 -402 -153 -442
-185 -27 -20 -26 -17 -43 -180 -2 -19 -7 -75 -10 -125 -3 -49 -7 -117 -10
-150 -2 -33 -7 -109 -10 -170 -4 -60 -8 -139 -10 -175 -2 -36 -6 -119 -10
-185 -3 -66 -7 -160 -10 -210 -3 -49 -7 -153 -10 -230 -3 -77 -8 -189 -10
-250 -17 -401 -25 -688 -30 -1062 l-4 -332 97 -99 c132 -134 169 -155 286
-158 119 -4 193 13 308 69 195 94 966 411 1558 639 306 117 344 137 375 198
19 36 40 184 50 355 3 50 7 122 10 160 2 39 7 124 10 190 3 66 8 156 10 200 3
44 7 143 10 220 3 77 7 174 10 215 2 41 7 136 10 210 3 74 8 173 10 220 2 47
7 141 10 210 3 69 8 175 11 235 10 217 12 473 2 526 -14 80 -36 97 -132 104
-159 13 -310 68 -426 156 -67 52 -140 89 -171 88 -13 0 -46 -7 -74 -15z"/>
</g>
</svg>
